<?xml version="1.0" encoding="UTF-8" standalone="no"?>
<!-- Generator: Gravit.io -->
<svg xmlns="http://www.w3.org/2000/svg" xmlns:xlink="http://www.w3.org/1999/xlink" style="isolation:isolate" viewBox="0 0 1190.551 1683.78" width="1190.551pt" height="1683.78pt"><defs><clipPath id="_clipPath_ofG7uUNFSXjipiqTnKOCztBl84p1Azqe"><rect width="1190.551" height="1683.78"/></clipPath></defs><g clip-path="url(#_clipPath_ofG7uUNFSXjipiqTnKOCztBl84p1Azqe)"><rect x="-114.974" y="-140.936" width="1420.499" height="1965.651" transform="matrix(1,0,0,1,0,0)" fill="rgb(0,0,0)"/><linearGradient id="_lgradient_11" x1="1" y1="1.5308084989341894e-17" x2="0.9999999999999997" y2="1" gradientTransform="matrix(480,0,0,960,115.276,361.89)" gradientUnits="userSpaceOnUse"><stop offset="0%" stop-opacity="1" style="stop-color:rgb(0,255,0)"/><stop offset="100%" stop-opacity="1" style="stop-color:rgb(0,0,255)"/></linearGradient><path d=" M 595.276 1321.89 C 330.356 1321.89 115.276 1106.809 115.276 841.89 C 115.276 576.971 330.356 361.89 595.276 361.89 L 595.276 1321.89 L 595.276 1321.89 Z " fill="url(#_lgradient_11)"/><linearGradient id="_lgradient_12" x1="0" y1="0" x2="6.123233995736766e-17" y2="1" gradientTransform="matrix(480,0,0,960,595.276,361.89)" gradientUnits="userSpaceOnUse"><stop offset="0%" stop-opacity="1" style="stop-color:rgb(255,0,0)"/><stop offset="100%" stop-opacity="1" style="stop-color:rgb(0,0,0)"/></linearGradient><path d=" M 595.276 1321.89 C 860.195 1321.89 1075.276 1106.809 1075.276 841.89 C 1075.276 576.971 860.195 361.89 595.276 361.89 L 595.276 1321.89 C 595.276 1321.89 595.276 1321.89 595.276 1321.89 L 595.276 1321.89 Z " fill="url(#_lgradient_12)"/></g></svg>