<?xml version="1.0" encoding="UTF-8" standalone="no"?>
<!-- Generator: Gravit.io -->
<svg xmlns="http://www.w3.org/2000/svg" xmlns:xlink="http://www.w3.org/1999/xlink" style="isolation:isolate" viewBox="0 0 1190.551 1683.78" width="1190.551pt" height="1683.78pt"><defs><clipPath id="_clipPath_Um8S78xwdRo8yXWPpMIw3sp1FOFBp89I"><rect width="1190.551" height="1683.78"/></clipPath></defs><g clip-path="url(#_clipPath_Um8S78xwdRo8yXWPpMIw3sp1FOFBp89I)"><rect x="-306.255" y="-512.843" width="1803.062" height="1354.733" transform="matrix(1,0,0,1,0,0)" fill="rgb(0,255,0)"/><path d=" M 176.995 821.257 C 188.128 595.568 384.591 421.582 615.446 432.969 C 846.301 444.356 1024.688 636.833 1013.556 862.522 C 1002.423 1088.211 805.96 1262.198 575.105 1250.81 C 344.25 1239.423 165.863 1046.947 176.995 821.257 Z " fill="rgb(255,0,0)"/><rect x="-306.255" y="841.89" width="1803.062" height="1354.733" transform="matrix(1,0,0,1,0,0)" fill="rgb(0,0,255)"/><rect x="1487.873" y="74.82" width="46.317" height="1683.78" transform="matrix(1,0,0,1,0,0)" fill="rgb(0,0,0)"/><rect x="0" y="0" width="46.317" height="1683.78" transform="matrix(1,0,0,1,0,0)" fill="rgb(0,0,0)"/><rect x="113.386" y="0" width="46.317" height="1683.78" transform="matrix(1,0,0,1,0,0)" fill="rgb(0,0,0)"/><rect x="226.772" y="0" width="46.317" height="1683.78" transform="matrix(1,0,0,1,0,0)" fill="rgb(0,0,0)"/><rect x="340.157" y="0" width="46.317" height="1683.78" transform="matrix(1,0,0,1,0,0)" fill="rgb(0,0,0)"/><rect x="453.543" y="0" width="46.317" height="1683.78" transform="matrix(1,0,0,1,0,0)" fill="rgb(0,0,0)"/><rect x="572.117" y="0" width="46.317" height="1683.78" transform="matrix(1,0,0,1,0,0)" fill="rgb(0,0,0)"/></g></svg>